#N canvas -8 -8 1920 1002 10;
#X msg 960 200 devices;
#X msg 1050 200 open 8;
#X msg 1134 200 close;
#X obj 960 250 comport 0 9600;
#X obj 960 315 sel 13 10;
#X obj 960 360 zl group 100;
#X obj 960 395 iem_alisttosym;
#X obj 960 430 fromsymbol;
#X floatatom 960 490 5 0 0 0 - - -, f 5;
#X floatatom 1080 510 5 0 0 0 - - -, f 5;
#X floatatom 1140 510 5 0 0 0 - - -, f 5;
#X floatatom 1230 510 5 0 0 0 - - -, f 5;
#X obj 1120 560 osc~ 440;
#X obj 1160 690 *~, f 9;
#X msg 1180 640 1;
#X obj 1160 715 output~;
#X obj 1210 600 bng 15 250 50 0 empty empty empty 17 7 0 10 #fcfcfc
#000000 #000000;
#X obj 1230 560 sel 1;
#X msg 1220 640 0;
#X obj 960 455 unpack f f f f f;
#X floatatom 1280 510 5 0 0 0 - - -, f 5;
#X obj 1250 600 delay 10;
#X connect 0 0 3 0;
#X connect 1 0 3 0;
#X connect 2 0 3 0;
#X connect 3 0 4 0;
#X connect 4 0 5 0;
#X connect 4 2 5 0;
#X connect 5 0 6 0;
#X connect 6 0 7 0;
#X connect 7 0 19 0;
#X connect 11 0 17 0;
#X connect 12 0 13 0;
#X connect 13 0 15 0;
#X connect 14 0 13 1;
#X connect 16 0 14 0;
#X connect 17 0 16 0;
#X connect 17 1 21 0;
#X connect 18 0 13 1;
#X connect 19 0 8 0;
#X connect 19 1 9 0;
#X connect 19 2 10 0;
#X connect 19 3 11 0;
#X connect 19 4 20 0;
#X connect 21 0 18 0;
